<svg width="16" height="14" viewBox="0 0 16 14" fill="none" xmlns="http://www.w3.org/2000/svg">
<path d="M15 2.717V2.017C13.841 0.854 12.266 0.107 10.516 0.0179999C10.404 0.00599989 10.294 0 10.182 0C9.308 0 8.525 0.394 8.003 1.013C7.447 0.396 6.646 0.00599992 5.754 0.00599992C5.664 0.00599992 5.576 0.00999989 5.488 0.0179999C3.734 0.107 2.158 0.854 1 2.017V2.717L0 3.017V13.017L6.7 11.617L7 12.017H9L9.3 11.617L16 13.017V3.017L15 2.717ZM5.48 9.327C4.205 9.364 3.013 9.685 1.954 10.229L2 2.437C2.885 1.602 4.066 1.072 5.369 1.017C6.175 1.071 6.903 1.32 7.528 1.718L7.509 9.587C6.954 9.421 6.316 9.325 5.655 9.325C5.593 9.325 5.531 9.326 5.47 9.328L5.48 9.327ZM14 10.207C12.987 9.685 11.795 9.364 10.532 9.327C10.476 9.326 10.424 9.325 10.371 9.325C9.711 9.325 9.074 9.421 8.472 9.599L8.519 1.697C9.12 1.316 9.841 1.07 10.615 1.018C11.939 1.073 13.116 1.604 14.001 2.44L13.998 10.208L14 10.207Z" fill="#FF5A1A"/>
</svg>
