<svg width="16" height="18" viewBox="0 0 16 18" fill="none" xmlns="http://www.w3.org/2000/svg">
<path d="M5.66669 12.9922L6.05237 12.3489L5.87431 12.2422H5.66669V12.9922ZM5.66669 4.99739V5.74739H5.87431L6.05237 5.64062L5.66669 4.99739ZM12.3334 1H13.0834C13.0834 0.729835 12.9381 0.480547 12.703 0.347403C12.4679 0.214259 12.1794 0.217837 11.9477 0.356769L12.3334 1ZM12.3334 16.9896L11.9477 17.6328C12.1794 17.7717 12.4679 17.7753 12.703 17.6422C12.9381 17.509 13.0834 17.2597 13.0834 16.9896H12.3334ZM5.66669 12.2422H3.00002V13.7422H5.66669V12.2422ZM3.00002 12.2422C2.67728 12.2422 2.41669 11.9814 2.41669 11.6597H0.916687C0.916687 12.8117 1.85076 13.7422 3.00002 13.7422V12.2422ZM2.41669 11.6597V6.32986H0.916687V11.6597H2.41669ZM2.41669 6.32986C2.41669 6.00817 2.67728 5.74739 3.00002 5.74739V4.24739C1.85076 4.24739 0.916687 5.17784 0.916687 6.32986H2.41669ZM3.00002 5.74739H5.66669V4.24739H3.00002V5.74739ZM6.05237 5.64062L12.719 1.64323L11.9477 0.356769L5.281 4.35416L6.05237 5.64062ZM11.5834 1V16.9896H13.0834V1H11.5834ZM12.719 16.3463L6.05237 12.3489L5.281 13.6354L11.9477 17.6328L12.719 16.3463ZM14.25 7V11H15.75V7H14.25Z" fill="white"/>
</svg>