<svg width="14" height="15" viewBox="0 0 14 15" fill="none" xmlns="http://www.w3.org/2000/svg">
<g id="ArrowRight">
<path id="Vector" d="M12.5781 7.02227L6.675 1.89883C6.62969 1.85977 6.57188 1.83789 6.51094 1.83789H5.12813C5.0125 1.83789 4.95938 1.98164 5.04688 2.05664L10.5188 6.80664H1.375C1.30625 6.80664 1.25 6.86289 1.25 6.93164V7.86914C1.25 7.93789 1.30625 7.99414 1.375 7.99414H10.5172L5.04531 12.7441C4.95781 12.8207 5.01094 12.9629 5.12656 12.9629H6.55625C6.58594 12.9629 6.61563 12.952 6.6375 12.9316L12.5781 7.77852C12.6322 7.73148 12.6756 7.67338 12.7053 7.60815C12.735 7.54292 12.7504 7.47207 12.7504 7.40039C12.7504 7.32871 12.735 7.25786 12.7053 7.19263C12.6756 7.1274 12.6322 7.0693 12.5781 7.02227Z" fill="#FF5A1A"/>
</g>
</svg>
